<svg width="112" height="27" viewBox="0 0 112 27" fill="none" xmlns="http://www.w3.org/2000/svg">
<g clip-path="url(#clip0_73_268)">
<path d="M42.8225 0.0522461C45.9042 0.0812638 48.7653 0.590041 51.3982 2.04673C53.9266 3.44732 55.7896 5.46501 56.8419 8.16172C58.1071 11.404 58.1129 14.7236 57.0837 18.0142C56.1494 21.0011 54.2168 23.249 51.4911 24.7695C48.0747 26.675 44.3875 27.236 40.5205 26.8627C38.7775 26.6944 37.0848 26.3423 35.4675 25.671C31.6855 24.106 29.0604 21.4654 28.0196 17.4396C27.0736 13.7796 27.36 10.2181 29.2055 6.8656C30.4474 4.60802 32.3162 2.99657 34.6086 1.85328C37.2298 0.549416 40.0388 0.0928709 42.8225 0.0522461ZM36.9513 13.7989C37.0693 14.8861 37.1621 15.9772 37.3111 17.0624C37.5587 18.8751 38.1294 20.5794 39.2475 22.0477C39.8318 22.8137 40.5901 23.4018 41.5399 23.6572C43.6311 24.2182 45.3064 23.2645 46.3956 21.5737C47.4808 19.8907 47.918 18.0026 48.1463 16.0545C48.4345 13.5822 48.3088 11.1254 47.6665 8.71693C47.2642 7.20994 46.6664 5.78034 45.4786 4.69701C44.196 3.52857 42.66 3.34672 41.1646 3.9174C39.6557 4.49195 38.7852 5.74165 38.1836 7.17512C37.2976 9.28955 37.0287 11.52 36.9493 13.8008L36.9513 13.7989Z" fill="#231f20"/>
<path d="M84.9096 26.9846C85.7976 25.5782 86.6101 24.284 87.4284 22.9937C88.8502 20.7477 90.2663 18.4979 91.7037 16.2616C91.9126 15.9366 91.8874 15.7083 91.6959 15.393C88.6761 10.4426 85.6699 5.48442 82.6617 0.526265C82.5805 0.392784 82.5089 0.251564 82.3948 0.0484402C82.6018 0.0329641 82.7507 0.0116844 82.9016 0.0116844C85.5945 0.0116844 88.2854 0.0194225 90.9782 0.00394639C91.3651 0.00201188 91.5837 0.131624 91.7868 0.454688C93.29 2.85929 94.8105 5.25035 96.3271 7.64527C96.4432 7.82905 96.5767 8.00316 96.7508 8.25078C97.2596 7.45182 97.7239 6.72444 98.1862 5.99513C99.3566 4.1438 100.529 2.29248 101.695 0.439212C101.854 0.185791 102.005 -0.00185715 102.367 0.00201188C105.139 0.0194225 107.913 0.00974993 110.685 0.0116844C110.795 0.0116844 110.904 0.0290951 111.087 0.0445712C110.786 0.553348 110.515 1.0215 110.234 1.48385C105.183 9.80032 100.13 18.1129 95.0871 26.4333C94.8453 26.8318 94.5996 27.0059 94.1044 27.0001C91.251 26.9691 88.3976 26.9846 85.5442 26.9846C85.372 26.9846 85.2017 26.9846 84.9116 26.9846H84.9096Z" fill="#231f20"/>
<path d="M23.9956 21.2448C24.0131 21.4653 24.0324 21.6201 24.0363 21.7768C24.0595 22.9375 24.0672 24.0982 24.1117 25.257C24.1233 25.5607 24.0227 25.7 23.75 25.7774C20.469 26.6982 17.1533 27.2108 13.7273 26.8684C11.46 26.6421 9.27981 26.1391 7.24276 25.1119C3.2596 23.1058 0.829853 19.9216 0.164381 15.4838C-0.390825 11.7812 0.458427 8.40157 2.77404 5.44564C4.30037 3.49758 6.31226 2.17824 8.6182 1.31158C11.9959 0.0386735 15.4877 -0.220551 19.0356 0.284357C20.529 0.497153 21.9954 0.889859 23.4791 1.1723C23.9937 1.27096 24.1407 1.50697 24.1079 2.02929C24.0401 3.0894 24.0576 4.15532 24.0382 5.2193C24.0343 5.39147 24.0227 5.56364 24.015 5.77644C23.1503 5.46305 22.3474 5.14772 21.5311 4.87689C19.7126 4.27719 17.8574 3.94446 15.9287 4.04698C13.0695 4.20175 10.957 5.80546 10.0401 8.5486C9.33591 10.6553 9.28754 12.8297 9.44811 15.0041C9.53323 16.1512 9.7054 17.3197 10.0497 18.4127C10.9551 21.2951 12.9825 22.804 16.0138 22.9897C18.0896 23.1174 20.0763 22.657 22.0224 21.9915C22.6608 21.7729 23.2857 21.5156 23.9995 21.2467L23.9956 21.2448Z" fill="#231f20"/>
<path d="M70.2769 26.9574C70.0679 26.969 69.9403 26.9825 69.8145 26.9825C67.1391 26.9825 64.4637 26.9767 61.7882 26.9942C61.3839 26.9961 61.2698 26.8703 61.2698 26.4738C61.2794 17.7839 61.2756 9.09604 61.2775 0.406206C61.2775 0.295939 61.2949 0.187606 61.3065 0.0463867H70.2633V5.48624C70.4452 5.29472 70.5419 5.22121 70.6038 5.12448C71.6755 3.43565 73.1148 2.15114 74.9178 1.29415C76.0939 0.735073 77.3494 0.460373 78.6533 0.442962C78.7655 0.442962 78.9802 0.615134 78.9802 0.70799C78.9899 3.36601 78.9802 6.02597 78.9706 8.68399C78.9706 8.69753 78.9532 8.71107 78.9106 8.77491C78.7926 8.77491 78.6378 8.78071 78.485 8.77491C76.7478 8.7014 75.0416 8.84842 73.3992 9.4636C72.1108 9.94722 71.0603 10.7288 70.5961 12.0655C70.3833 12.6749 70.2981 13.3558 70.2943 14.0058C70.2672 18.1167 70.2807 22.2275 70.2807 26.3384C70.2807 26.5279 70.2807 26.7175 70.2807 26.9593L70.2769 26.9574Z" fill="#231f20"/>
</g>
<defs>
<clipPath id="clip0_73_268">
<rect width="111.086" height="27" fill="#231f20"/>
</clipPath>
</defs>
</svg>
